<?xml version="1.0" standalone="no"?>
<!DOCTYPE svg PUBLIC "-//W3C//DTD SVG 20010904//EN"
 "http://www.w3.org/TR/2001/REC-SVG-20010904/DTD/svg10.dtd">
<svg version="1.0" xmlns="http://www.w3.org/2000/svg"
 width="1024.000000pt" height="1024.000000pt" viewBox="0 0 1024.000000 1024.000000"
 preserveAspectRatio="xMidYMid meet">
<metadata>
Created by potrace 1.16, written by Peter Selinger 2001-2019
</metadata>
<g transform="translate(0.000000,1024.000000) scale(0.100000,-0.100000)"
fill="#ffffff" stroke="none">
<path d="M2642 8595 c-29 -8 -73 -29 -98 -45 -44 -31 -115 -124 -129 -170 -4
-14 -11 -29 -15 -35 -37 -47 -52 -352 -26 -520 8 -49 17 -119 21 -155 3 -36
16 -105 27 -155 11 -49 26 -121 33 -160 7 -38 16 -77 19 -86 4 -9 -6 -34 -26
-62 -18 -25 -65 -90 -103 -144 -120 -167 -203 -304 -289 -478 -67 -135 -104
-216 -125 -275 -17 -45 -26 -68 -41 -105 -30 -72 -66 -196 -105 -360 -45 -187
-46 -195 -75 -451 -23 -207 -7 -682 31 -904 6 -36 14 -88 19 -117 4 -28 13
-66 18 -85 6 -18 16 -60 22 -93 7 -33 16 -68 21 -77 5 -10 9 -27 9 -38 0 -11
4 -28 9 -38 5 -9 26 -71 47 -137 70 -221 162 -423 285 -626 221 -367 553 -710
934 -966 96 -64 298 -166 505 -256 19 -8 57 -24 84 -36 85 -39 319 -132 381
-153 33 -10 69 -23 80 -28 11 -5 63 -21 115 -35 52 -14 113 -30 135 -36 73
-19 109 -27 183 -40 64 -11 77 -10 107 4 69 33 95 123 57 197 -19 40 -65 61
-172 80 -36 6 -78 15 -95 20 -162 48 -273 83 -287 91 -10 5 -25 9 -33 9 -8 0
-23 4 -33 9 -22 12 -71 32 -147 61 -33 12 -79 31 -102 41 -24 11 -45 19 -48
19 -7 0 -119 53 -320 151 -187 90 -375 213 -525 344 -49 42 -290 284 -320 320
-143 173 -221 284 -296 417 -36 65 -144 285 -144 295 0 3 -6 19 -14 36 -7 18
-19 48 -26 67 -7 19 -16 44 -20 55 -45 113 -77 231 -125 455 -93 435 -88 934
15 1390 6 25 13 60 16 78 4 18 11 35 15 38 5 3 9 14 9 24 0 21 63 208 105 315
37 91 165 345 224 443 68 114 179 275 260 377 70 89 71 91 71 150 0 33 -5 77
-11 98 -66 238 -125 633 -116 777 10 161 47 240 111 240 140 0 502 -251 828
-573 182 -181 161 -175 434 -119 135 28 295 49 490 63 282 21 804 -7 1019 -55
33 -8 85 -19 115 -25 30 -6 78 -15 105 -21 72 -16 96 -3 195 98 328 335 629
563 816 618 31 9 67 13 80 10 78 -20 100 -282 53 -606 -26 -179 -26 -181 -10
-213 26 -52 77 -80 137 -75 88 7 113 38 135 173 63 385 48 669 -46 829 -53 90
-140 148 -248 166 -96 15 -290 -49 -452 -150 -159 -99 -368 -269 -555 -450
-52 -50 -102 -98 -111 -106 -13 -12 -23 -12 -70 0 -212 52 -529 81 -899 80
-299 0 -460 -10 -645 -40 -203 -33 -231 -38 -252 -45 -19 -7 -31 2 -80 53 -85
89 -318 295 -430 380 -291 220 -547 318 -711 273z"/>
<path d="M6703 7173 c-9 -3 -13 -28 -13 -74 l0 -69 185 0 185 0 0 63 c0 36 -5
68 -12 75 -12 12 -317 17 -345 5z"/>
<path d="M7110 6860 l0 -70 180 0 181 0 -3 68 -3 67 -177 3 -178 2 0 -70z"/>
<path d="M6424 6726 c-3 -7 -4 -38 -2 -67 l3 -54 250 0 250 0 3 68 3 67 -251
0 c-203 0 -252 -3 -256 -14z"/>
<path d="M7090 6355 l0 -75 235 0 235 0 0 75 0 75 -235 0 -235 0 0 -75z"/>
<path d="M6687 6163 c-4 -3 -7 -37 -7 -75 l0 -68 300 0 300 0 0 59 c0 99 26
91 -299 91 -158 0 -291 -3 -294 -7z"/>
<path d="M5905 5951 c-64 -11 -64 -12 -42 -96 l20 -76 71 3 70 3 14 78 c8 43
12 80 10 82 -8 9 -106 13 -143 6z"/>
<path d="M7613 5903 c-9 -3 -13 -28 -13 -74 l0 -69 205 0 206 0 -3 73 -3 72
-190 2 c-104 1 -196 -1 -202 -4z"/>
<path d="M3492 5864 c-105 -28 -203 -111 -251 -214 -23 -48 -26 -67 -26 -160
1 -94 4 -110 27 -155 70 -133 199 -215 338 -215 206 0 362 143 377 345 9 120
-24 212 -106 295 -52 53 -99 80 -180 104 -66 19 -109 19 -179 0z"/>
<path d="M6175 5808 c-22 -34 -41 -65 -43 -69 -4 -11 67 -99 80 -99 9 0 139
58 146 65 14 14 -107 165 -132 165 -6 0 -29 -28 -51 -62z"/>
<path d="M5637 5815 c-24 -26 -54 -65 -66 -86 -21 -37 -21 -39 -4 -46 10 -3
42 -17 72 -30 56 -24 81 -29 81 -15 0 5 15 26 34 48 39 46 39 47 -36 133 l-36
42 -45 -46z"/>
<path d="M5859 5696 c-31 -15 -35 -47 -10 -70 36 -33 80 -3 68 46 -8 32 -27
40 -58 24z"/>
<path d="M6017 5692 c-10 -10 -17 -27 -17 -38 0 -48 59 -60 87 -18 17 26 17
27 -12 50 -36 29 -38 29 -58 6z"/>
<path d="M7213 5583 c-9 -3 -13 -28 -13 -74 l0 -69 354 0 c274 0 355 3 359 13
5 14 0 104 -7 124 -4 10 -70 13 -343 12 -186 0 -344 -3 -350 -6z"/>
<path d="M5762 5548 c-21 -21 -14 -64 11 -75 35 -16 67 1 67 36 0 43 -50 67
-78 39z"/>
<path d="M6095 5540 c-24 -27 -13 -66 21 -74 15 -4 32 -2 40 5 21 17 18 66 -5
79 -27 14 -35 13 -56 -10z"/>
<path d="M6248 5518 c-9 -7 -18 -31 -20 -53 -3 -22 -8 -47 -12 -56 -10 -22
142 -98 155 -78 17 26 39 117 39 158 l0 41 -73 0 c-43 0 -80 -5 -89 -12z"/>
<path d="M5522 5507 c-9 -11 -10 -28 -2 -68 12 -58 39 -129 49 -129 4 0 37 16
75 36 58 31 67 39 61 58 -3 11 -9 38 -12 59 -3 21 -8 39 -12 41 -3 2 -38 7
-77 11 -55 5 -73 4 -82 -8z"/>
<path d="M5846 5401 c-25 -28 -17 -64 18 -76 24 -8 31 -6 47 13 19 24 16 49
-9 70 -22 17 -36 15 -56 -7z"/>
<path d="M6006 5399 c-13 -19 -13 -25 0 -50 15 -31 33 -36 65 -19 24 13 25 52
1 73 -25 23 -48 21 -66 -4z"/>
<path d="M6078 5271 c-26 -15 -49 -29 -52 -32 -6 -6 19 -147 27 -156 16 -15
187 68 187 90 0 18 -90 127 -103 126 -7 -1 -33 -13 -59 -28z"/>
<path d="M5727 5231 l-46 -58 22 -21 c32 -29 101 -61 138 -64 32 -3 33 -2 45
57 20 91 19 92 -36 120 -27 14 -56 25 -63 25 -8 0 -35 -26 -60 -59z"/>
<path d="M8453 5104 c-9 -4 -13 -29 -13 -74 l0 -68 66 -4 c36 -1 70 0 76 3 5
3 8 37 6 75 l-3 69 -60 2 c-33 1 -66 -1 -72 -3z"/>
<path d="M7364 5086 c-3 -7 -4 -40 -2 -72 l3 -59 216 -3 217 -2 6 22 c7 29 7
77 0 106 -6 22 -7 22 -220 22 -172 0 -216 -3 -220 -14z"/>
<path d="M6937 4753 c-4 -3 -7 -37 -7 -75 l0 -68 80 0 80 0 0 75 0 75 -73 0
c-41 0 -77 -3 -80 -7z"/>
<path d="M7357 4754 c-4 -4 -7 -38 -7 -76 l0 -68 160 0 161 0 -3 73 -3 72
-151 3 c-82 1 -153 -1 -157 -4z"/>
<path d="M7874 4496 c-3 -7 -4 -40 -2 -72 l3 -59 290 0 290 0 3 73 3 72 -291
0 c-236 0 -292 -3 -296 -14z"/>
<path d="M6483 4442 l-83 -3 0 -68 0 -69 103 -7 c56 -4 127 -5 157 -3 l55 3 3
68 c2 48 -1 68 -10 71 -23 7 -140 11 -225 8z"/>
<path d="M6949 4419 c-6 -3 -9 -35 -7 -70 l3 -64 208 -5 c115 -3 215 -1 223 3
16 9 20 112 6 135 -7 10 -55 12 -216 10 -114 -2 -212 -6 -217 -9z"/>
<path d="M4615 4235 c-125 -32 -196 -68 -273 -139 -63 -59 -112 -140 -131
-218 -15 -64 0 -163 35 -228 65 -120 218 -225 374 -255 67 -14 73 -21 66 -78
-17 -127 -58 -202 -130 -236 -56 -26 -191 -29 -276 -6 -83 22 -108 20 -141
-17 -26 -26 -30 -38 -27 -76 4 -55 27 -75 113 -98 85 -22 285 -22 348 0 74 25
108 45 160 93 l48 45 52 -49 c34 -32 76 -58 120 -76 60 -24 80 -27 192 -27
143 0 257 24 288 61 34 42 14 116 -40 146 -30 16 -36 16 -105 0 -104 -24 -237
-23 -288 3 -70 35 -120 139 -120 245 l0 52 43 12 c186 54 276 104 347 193 113
142 120 286 20 435 -72 108 -218 195 -374 223 -79 13 -239 11 -301 -5z"/>
<path d="M7570 4101 c0 -54 4 -70 16 -75 9 -3 64 -6 124 -6 60 0 115 3 124 6
12 5 16 21 16 75 l0 69 -140 0 -140 0 0 -69z"/>
<path d="M7203 3915 c-10 -8 -13 -28 -11 -70 l3 -60 310 0 310 0 3 68 c2 49
-1 67 -10 68 -66 8 -594 2 -605 -6z"/>
<path d="M7074 3566 c-3 -7 -4 -40 -2 -72 l3 -59 110 0 110 0 3 73 3 72 -111
0 c-84 0 -112 -3 -116 -14z"/>
<path d="M7520 3505 l0 -76 98 3 97 3 3 73 3 72 -101 0 -100 0 0 -75z"/>
<path d="M6460 3195 l0 -75 269 0 268 0 7 58 c11 99 32 92 -275 92 l-269 0 0
-75z"/>
<path d="M7194 2936 c-3 -7 -4 -40 -2 -72 l3 -59 185 0 185 0 3 49 c7 101 17
96 -189 96 -142 0 -181 -3 -185 -14z"/>
<path d="M6566 2909 c-10 -49 -7 -94 6 -107 8 -8 66 -12 195 -12 l183 0 11 27
c5 15 9 47 7 72 l-3 46 -196 3 -196 2 -7 -31z"/>
<path d="M6906 2605 c-11 -29 -6 -112 7 -122 14 -12 178 -15 196 -4 8 5 11 29
9 72 l-3 64 -101 3 c-86 2 -103 0 -108 -13z"/>
<path d="M5977 2574 c-4 -4 -7 -38 -7 -76 l0 -68 250 0 251 0 -3 73 -3 72
-241 3 c-132 1 -243 -1 -247 -4z"/>
<path d="M6272 2258 l3 -73 213 -3 212 -2 0 75 0 75 -215 0 -216 0 3 -72z"/>
<path d="M5337 2143 c-4 -3 -7 -37 -7 -75 l0 -68 280 0 280 0 0 75 0 75 -273
0 c-151 0 -277 -3 -280 -7z"/>
<path d="M5392 1778 l3 -73 180 0 180 0 3 73 3 72 -186 0 -186 0 3 -72z"/>
</g>
</svg>
